<svg width="1000" height="260" viewBox="0 0 1000 260" xmlns="http://www.w3.org/2000/svg">
  <defs>
    <linearGradient id="bg" x1="0%" y1="0%" x2="100%" y2="100%">
      <stop offset="0%" stop-color="#f8f7fc"/>
      <stop offset="55%" stop-color="#eeeaf9"/>
      <stop offset="100%" stop-color="#f8f7fc"/>
    </linearGradient>
  </defs>

  <rect width="1000" height="260" rx="14" fill="url(#bg)" stroke="#e0d9f3" stroke-width="1.5"/>

  <!-- decorative network dots, top-right -->
  <g opacity="0.8">
    <circle cx="830" cy="60" r="3" fill="#7c3aed"/>
    <circle cx="880" cy="45" r="2.5" fill="#7c3aed"/>
    <circle cx="915" cy="80" r="3" fill="#7c3aed"/>
    <circle cx="865" cy="100" r="2" fill="#7c3aed"/>
    <circle cx="945" cy="55" r="2.5" fill="#7c3aed"/>
    <line x1="830" y1="60" x2="880" y2="45" stroke="#a78bfa" stroke-width="0.8"/>
    <line x1="880" y1="45" x2="915" y2="80" stroke="#a78bfa" stroke-width="0.8"/>
    <line x1="915" y1="80" x2="865" y2="100" stroke="#a78bfa" stroke-width="0.8"/>
    <line x1="880" y1="45" x2="945" y2="55" stroke="#a78bfa" stroke-width="0.8"/>
    <line x1="830" y1="60" x2="865" y2="100" stroke="#a78bfa" stroke-width="0.6"/>
  </g>

  <!-- bar chart motif -->
  <g opacity="0.55" fill="#7c3aed">
    <rect x="855" y="150" width="10" height="40"/>
    <rect x="870" y="130" width="10" height="60"/>
    <rect x="885" y="160" width="10" height="30"/>
    <rect x="900" y="115" width="10" height="75"/>
    <rect x="915" y="145" width="10" height="45"/>
  </g>

  <!-- eyebrow -->
  <text x="60" y="70" font-family="Helvetica, Arial, sans-serif" font-size="13" letter-spacing="4" fill="#7c3aed">AI &#8226; DATA SCIENCE &#8226; FULL-STACK</text>

  <!-- name -->
  <text x="58" y="130" font-family="Georgia, 'Times New Roman', serif" font-size="56" font-weight="bold" fill="#1f1a33">TABISHA CHOUHAN</text>

  <!-- tagline -->
  <text x="60" y="163" font-family="Helvetica, Arial, sans-serif" font-size="17" fill="#4c3d75">Data Science Undergraduate &#183; AI Developer &#183; Full-Stack Engineer</text>
  <text x="60" y="186" font-family="Helvetica, Arial, sans-serif" font-size="13" fill="#7c6a9c">Prompt Engineering &#183; LLM Integration &#183; REST APIs &#183; React &#183; Node.js</text>

  <!-- footer strip -->
  <text x="60" y="225" font-family="Helvetica, Arial, sans-serif" font-size="12" fill="#9182ab">IIT Madras &#183; AI Product Dev Intern @ SoLe.AI &#183; 4 shipped projects</text>
</svg>
